<svg xmlns="http://www.w3.org/2000/svg" viewBox="0 0 1273.08 1273.08"><defs><style>.cls-1{fill:#fff;}</style></defs><g id="Capa_2" data-name="Capa 2"><g id="Layer_1" data-name="Layer 1"><path class="cls-1" d="M240.38,759.11h-21l4.14-19.18h62.8l-4.14,19.18H261.07L236.12,876.76H215.43Z"/><path class="cls-1" d="M330.42,804.48,322,844.61c-4.71,22.55-12.24,33.79-34.59,33.79-21.07,0-30.26-12.88-25.52-35.15l9.06-42.39c4.18-19.87,13.31-31.76,34.28-31.76C326.41,769.1,334.9,782.89,330.42,804.48Zm-38.62-3.62L282,847c-1.88,8.65.32,14.25,7.48,14.25,6.6,0,9.27-5.33,11.2-14.44L310.45,801c1.68-8,1.21-14.71-7.17-14.71C295.79,786.29,293.61,792.5,291.8,800.86Z"/><path class="cls-1" d="M344,770.74h11.21l5.94-25.6h20.49l-5.92,25.6H389l-3.78,17.73H372l-14.27,64.18c-1.12,5.41-.59,8.89,5.6,8.89a38.91,38.91,0,0,0,6.57-.48l-3.41,15.72a55.25,55.25,0,0,1-13,1.57c-13,0-21.17-4.28-17.22-22.64l14.84-67.24H340.26Z"/><path class="cls-1" d="M438.45,850.59c-1.72,8.42-4.8,22.66-5.23,26.17H413.09c.23-2,.66-5.37,1.28-8.6-5,7-10.16,10.24-18.8,10.24-16.63,0-19.06-15.87-15.6-32.18,5.39-24.65,17.4-31.1,42.21-34.84,1.41-.2,2.67-.41,4.1-.61l2.81-12.87c1.61-7.47,1-12.51-5.37-12.51s-7.78,5.39-9.59,12.79l-.77,3.23H392.87l.38-1.74c2.87-13.21,6.45-30.57,32.06-30.57,21.27,0,27.93,11.17,24.32,28.4ZM423.22,826.9l-3.21.62c-10.92,2.35-16.38,5.85-19.19,17.69-1.6,7.19-1.83,15.07,5.64,15.07,7.79,0,11.14-7.3,14.23-21.77Z"/><path class="cls-1" d="M450.33,876.76,480.64,734h20.69L471,876.76Z"/><path class="cls-1" d="M582.87,837.84l-.62,2.48c-4.64,18.59-8.72,38.44-36.61,38.44-24.43,0-29.68-16.13-24.79-38.86l13.35-62.5c5.35-24.62,12.25-39.47,35.25-39.47,29.5,0,29.48,21.8,25.39,38.28l-.46,1.86H573.53l1.13-5.29c2.35-11,1.32-16.93-6.36-16.93-6.84,0-9.36,5.55-11.94,17.58l-14.62,68.89c-2.36,11.51-2.18,18.7,6,18.7,7,0,9.69-5.83,12.52-18.13l1.18-5Z"/><path class="cls-1" d="M662,804.48l-8.47,40.13c-4.71,22.55-12.24,33.79-34.58,33.79-21.07,0-30.26-12.88-25.53-35.15l9.06-42.39c4.18-19.87,13.32-31.76,34.29-31.76C658,769.1,666.52,782.89,662,804.48Zm-38.62-3.62L613.58,847c-1.89,8.65.32,14.25,7.48,14.25,6.59,0,9.26-5.33,11.19-14.44L642.06,801c1.68-8,1.22-14.71-7.17-14.71C627.41,786.29,625.22,792.5,623.41,800.86Z"/><path class="cls-1" d="M677.43,803.44c4.48-21.54,5.89-28,6.71-32.7h20.28c-.38,2.87-.64,5-1.32,8a24.56,24.56,0,0,1,20-9.66c13.7,0,19.65,10.35,16.3,26L722,876.76H701.28l16.26-76.59c2.07-9.57-.35-13.85-6.29-13.85-6.94,0-10.52,5.33-13.43,19.36L682.6,876.76H661.91Z"/><path class="cls-1" d="M753.28,770.74h11.21l5.94-25.6h20.49L785,770.74h13.2l-3.77,17.73h-13.2L767,852.65c-1.13,5.41-.59,8.89,5.6,8.89a39,39,0,0,0,6.57-.48l-3.42,15.72a55.25,55.25,0,0,1-13,1.57c-13,0-21.16-4.28-17.21-22.64l14.83-67.24H749.51Z"/><path class="cls-1" d="M801.74,806.66c3.66-17.6,6.09-28.29,7.32-35.92h19.59A129.94,129.94,0,0,1,826,786.43c5.74-13.09,15.55-17.23,25.18-17.28l-5.45,24.44c-13.9,0-22,5.74-26.37,26.38l-11.79,56.79H786.86Z"/><path class="cls-1" d="M913.15,804.48l-8.47,40.13c-4.71,22.55-12.24,33.79-34.59,33.79-21.06,0-30.26-12.88-25.52-35.15l9.06-42.39C857.81,781,867,769.1,887.91,769.1,909.14,769.1,917.63,782.89,913.15,804.48Zm-38.62-3.62L864.7,847c-1.89,8.65.32,14.25,7.48,14.25,6.59,0,9.26-5.33,11.19-14.44L893.18,801c1.68-8,1.21-14.71-7.17-14.71C878.53,786.29,876.34,792.5,874.53,800.86Z"/><path class="cls-1" d="M913,876.76,943.35,734H964L933.72,876.76Z"/><path class="cls-1" d="M1009.77,876.76l7-33.58H980.55L983.94,828l45.56-84.34h28.15l-17.74,82.72h9.75l-4.8,16.84h-8.55l-7.14,33.58ZM1026,801.11c2.84-13.33,6.35-27.37,9.35-40.55h-.21c-9.56,20.73-20.39,45.45-31.14,65.78h16.46Z"/><path class="cls-1" d="M759.19,355.28a172.08,172.08,0,0,0-97.36-49v23.47c70.87,12.06,125,73.91,125,148.16,0,1.32,0,2.63-.05,3.95H810c0-1.32,0-2.63,0-3.95A172.33,172.33,0,0,0,759.19,355.28Z"/><path class="cls-1" d="M636.54,304.47A173.54,173.54,0,0,0,465.05,451.63h23.5c12.47-70.38,74.09-124,148-124l2.13,0V304.49Z"/><path class="cls-1" d="M486.24,477.93c0-1.05,0-2.09,0-3.14H463.11c0,1,0,2.09,0,3.14A173.53,173.53,0,0,0,609.81,649.35V625.84C539.64,613.19,486.24,551.68,486.24,477.93Z"/><path class="cls-1" d="M784.38,505c-12.8,70-74.22,123.18-147.84,123.18-1.19,0-2.39,0-3.57,0v23.16c1.18,0,2.38,0,3.57,0A173.55,173.55,0,0,0,807.9,505Z"/><rect class="cls-1" x="624.95" y="265.87" width="23.16" height="89.69"/><rect class="cls-1" x="624.95" y="600.3" width="23.16" height="89.69"/><rect class="cls-1" x="424.48" y="466.35" width="89.69" height="23.16"/><rect class="cls-1" x="758.91" y="466.35" width="89.69" height="23.16"/><path class="cls-1" d="M537.54,453.48a102.34,102.34,0,0,1,34.14-54.2,59.32,59.32,0,0,0-2.08,10.12,49.26,49.26,0,0,0,.33,14.31,38.64,38.64,0,0,0,1.9,7.07,36.67,36.67,0,0,0,3.24,6.67l.48.79.91,1.3c.24.34.47.68.72,1l.61.75a11.77,11.77,0,0,0-2.92,3,11.5,11.5,0,0,0-1.55,3.46q-.72-.23-1.44-.42l-.82-.24c-.41-.11-.82-.19-1.22-.27l-1.52-.33-.94-.13a33.6,33.6,0,0,0-5.48-.42c-.64,0-1.29,0-1.93,0a38,38,0,0,0-7.24,1,49.62,49.62,0,0,0-13.3,5.29Q538.47,452.9,537.54,453.48Z"/><path class="cls-1" d="M729.11,469.91c-.61,0-1.23,0-1.85-.05a60.46,60.46,0,0,1-16-3.15,109.88,109.88,0,0,1-15.12-6.27c-2.41-1.2-4.84-2.51-7.22-3.87-2.67-1.54-4.94-2.94-6.92-4.28l-2.24-1.51a.37.37,0,0,0-.21-.06.37.37,0,0,0-.36.31l-3.05,17.9a147.86,147.86,0,0,0-16.95-9l-.55-14.07c.85-.22,1.68-.45,2.53-.71,1.44-.44,2.86-.93,4.23-1.46a42,42,0,0,0,8-4.09,20.59,20.59,0,0,0,6.39-6.41,12.6,12.6,0,0,0,1.81-6.52,14.6,14.6,0,0,0-.19-2.23.37.37,0,0,0-.36-.31h0a.36.36,0,0,0-.33.38,13.38,13.38,0,0,1,0,2.11,11.73,11.73,0,0,1-.39,2,11.48,11.48,0,0,1-1.81,3.64,18.47,18.47,0,0,1-6.33,5.16,38.5,38.5,0,0,1-7.78,3c-1.32.37-2.69.7-4.09,1s-2.89.51-4.08.63l-1.41.15a.36.36,0,0,0-.33.34l-1,14.89a192.43,192.43,0,0,0-19.86-6.81l-.56-14,.72-.51c.6-.43,1.17-.87,1.74-1.32,1.14-.91,2.24-1.87,3.27-2.84a40.79,40.79,0,0,0,5.66-6.55,30.9,30.9,0,0,0,2.2-3.75,25.71,25.71,0,0,0,1.55-4.05,21.66,21.66,0,0,0,.73-4.26,20.56,20.56,0,0,0-.23-4.27.37.37,0,0,0-.36-.31h0a.36.36,0,0,0-.33.38,20.29,20.29,0,0,1-.21,4.07,20.08,20.08,0,0,1-1.09,3.87,23.62,23.62,0,0,1-1.83,3.57,27.18,27.18,0,0,1-2.38,3.23,38,38,0,0,1-5.86,5.49c-1.05.8-2.16,1.58-3.31,2.3-.56.36-1.13.71-1.71,1s-1.17.66-1.7.91l-.85.41a.35.35,0,0,0-.2.31l-1,14.72c-3.07-.79-6.21-1.54-9.37-2.22-.76-1-6.38-8-14.81-8a18.8,18.8,0,0,0-10.51,3.52,12.29,12.29,0,0,0-1.79-1.46,11.84,11.84,0,0,0-8-1.87c-.54-.46-1-1-1.52-1.45l-.58-.58c-.22-.23-.44-.49-.66-.74l-.93-1.08-.48-.63a32.11,32.11,0,0,1-3.42-5.53,35,35,0,0,1-2.36-6.18,46.74,46.74,0,0,1-1.66-13.38,57.56,57.56,0,0,1,1.3-11.37,101.93,101.93,0,0,1,165,70.52,26.45,26.45,0,0,1-2.67.66A34.46,34.46,0,0,1,729.11,469.91Z"/><path class="cls-1" d="M636.51,579.92a102,102,0,0,1-99.55-124c1.25-.64,2.37-1.19,3.44-1.66a46.4,46.4,0,0,1,13-3.7,36.27,36.27,0,0,1,4.66-.32c.65,0,1.3,0,1.94.06a32.08,32.08,0,0,1,6.43,1l.8.2,1.33.43c.32.1.64.2,1,.32l.8.32a21.93,21.93,0,0,1,2.14.94c.32.15.6.3.89.45a11.84,11.84,0,0,0,4.91,6.85,12.73,12.73,0,0,0,2,1.07c-3.17,16.67,12.34,21.14,14,21.57,1.86,2.63,3.77,5.24,5.7,7.75l-13.16,6.66a.37.37,0,0,0-.2.31l0,.94c0,.59-.1,1.28-.18,1.93s-.17,1.32-.28,2c-.22,1.33-.5,2.65-.83,3.94a37.65,37.65,0,0,1-2.76,7.54,28.94,28.94,0,0,1-2,3.46A24.31,24.31,0,0,1,577.9,521a18.14,18.14,0,0,1-6.8,4.3.37.37,0,0,0-.22.45.37.37,0,0,0,.35.26h.1a20.6,20.6,0,0,0,4-1.46,21.74,21.74,0,0,0,3.64-2.33,26.09,26.09,0,0,0,3.12-3,31,31,0,0,0,2.59-3.49A41,41,0,0,0,588.5,508c.5-1.32,1-2.71,1.34-4.12.19-.7.36-1.4.53-2.11.07-.3.13-.58.19-.87l13.11-5a196.21,196.21,0,0,0,14,15.61l-13.32,6.74a.36.36,0,0,0-.18.44l.42,1.35c.35,1.15.69,2.5,1,4s.53,2.78.71,4.14a38.54,38.54,0,0,1,.27,8.34,18.47,18.47,0,0,1-2.27,7.84,11.44,11.44,0,0,1-2.64,3.09,13.28,13.28,0,0,1-1.72,1.16,14.08,14.08,0,0,1-1.92.85.37.37,0,0,0-.23.46.38.38,0,0,0,.35.26h.09a15.49,15.49,0,0,0,2.12-.7,13.21,13.21,0,0,0,2-1.07,12.9,12.9,0,0,0,3.3-3.15,20.62,20.62,0,0,0,3.4-8.38,42,42,0,0,0,.63-9c0-1.46-.15-3-.31-4.47-.09-.87-.21-1.73-.34-2.59l13.18-5a146.29,146.29,0,0,0,14.88,12.09l-15.29,9.81a.39.39,0,0,0-.17.31.38.38,0,0,0,.17.31l2.27,1.47c2,1.3,4.17,2.84,6.64,4.7,2.19,1.66,4.34,3.38,6.39,5.13a110,110,0,0,1,11.69,11.46l1.65,1.88c3.09,3.5,6.28,7.11,8.25,11.1a.37.37,0,0,0,.33.21l.15,0a.37.37,0,0,0,.19-.48,63.26,63.26,0,0,0-8.64-14.27,112.8,112.8,0,0,0-11.35-12.39c-2-1.9-4.11-3.79-6.27-5.6-1.34-1.13-2.6-2.15-3.84-3.12l13.38-6.79c17,10.67,34.59,16.09,52.39,16.09a80.58,80.58,0,0,0,17.45-1.87A102,102,0,0,1,636.51,579.92Z"/><path class="cls-1" d="M722.44,532.83c-2.3-13.93-10.67-39.38-40.7-60.24l1-15c1.38.76,2.82,1.52,4.37,2.31,2.52,1.27,5.08,2.47,7.61,3.57a113.87,113.87,0,0,0,15.84,5.61,63.79,63.79,0,0,0,16.33,2.37h.32a36.09,36.09,0,0,0,8.38-1c.79-.19,1.61-.44,2.52-.75.23,2.95.35,5.63.35,8.2A101.51,101.51,0,0,1,722.44,532.83Z"/><path class="cls-1" d="M636.54,1273.08c-170,0-329.88-66.21-450.1-186.44S0,806.56,0,636.54s66.21-329.88,186.44-450.1S466.51,0,636.54,0s329.87,66.21,450.1,186.44,186.44,280.07,186.44,450.1-66.21,329.87-186.44,450.1S806.56,1273.08,636.54,1273.08Zm0-1262.91c-345.38,0-626.37,281-626.37,626.37s281,626.37,626.37,626.37,626.37-281,626.37-626.37S981.92,10.17,636.54,10.17Z"/><path class="cls-1" d="M636.54,1194c-148.89,0-288.88-58-394.16-163.27S79.11,785.43,79.11,636.54a557.9,557.9,0,0,1,70.11-270.85l4.44,2.48A552.75,552.75,0,0,0,84.2,636.54c0,304.56,247.78,552.34,552.34,552.34A552.9,552.9,0,0,0,1120.4,903.13l4.45,2.46A558,558,0,0,1,636.54,1194Z"/><rect class="cls-1" x="418.94" y="984.56" width="435.19" height="6.28"/><rect class="cls-1" x="502.24" y="1025.84" width="268.59" height="6.28"/><rect class="cls-1" x="536.64" y="1067.11" width="199.8" height="6.28"/><path class="cls-1" d="M268.7,931.07c1.26-6,2.78-12.63,3.65-16.38h-.12c-2.4,6.09-8.39,19.83-12.79,29.62h-4.68c.09-8.41.1-23.76.37-29.71H255c-.64,3.95-2,11.18-3.26,17l-2.7,12.7h-4.72l7.22-33.91h7.63c.33,9.18.36,21,0,25.3h.05c1.47-4.21,7.46-16.93,11.46-25.3H278l-7.22,33.91h-4.91Z"/><path class="cls-1" d="M292.62,934.91l-4,9.4h-5.17l14.79-33.91h6.88l.76,33.91h-5l-.07-9.4Zm8.13-4.4c-.08-7.22-.08-12.94.07-16.07h-.14c-1.07,3.2-3.45,9.13-6.26,16.07Z"/><path class="cls-1" d="M318.13,944.31l7.23-33.91h6c3.27,19.25,4,24.4,4.16,26.22h.05c.64-4.24,1.84-10.16,3-15.7l2.25-10.52h4.68l-7.22,33.91h-5.7c-3.24-19.83-4-25.63-4.17-27.47h-.05c-.67,4.19-1.81,10.36-3.11,16.45l-2.36,11Z"/><path class="cls-1" d="M373,928.68H362l-2.35,11.16h12.95l-1.64,4.47h-17.3l7.22-33.91h16.55l-1,4.47H364.88L363,924.21h11Z"/><path class="cls-1" d="M395.51,935.67c-1.17,5.4-2.15,9.09-8.32,9.09a19.13,19.13,0,0,1-3.89-.44l.87-4.16a11.31,11.31,0,0,0,2.66.28c2.53,0,2.93-1.66,3.52-4.49l5.41-25.55h5.1Z"/><path class="cls-1" d="M431.79,928.82c-2.26,10.5-6.45,16-12.92,16-8.46,0-9.75-8.11-7.39-18.94,2-9.37,6.16-16.06,12.85-16.06C432.36,909.85,434.34,917,431.79,928.82Zm-15.24-2.26c-1.64,7.73-1.81,13.9,2.64,13.9,3.55,0,5.6-3.74,7.5-12.17,1.72-7.65,2.31-14-2.56-14C420.32,914.27,418.09,919.31,416.55,926.56Z"/><path class="cls-1" d="M473.06,910.4l-7.22,33.91h-5.11L468,910.4Z"/><path class="cls-1" d="M481.19,944.31l7.22-33.91h6c3.27,19.25,4,24.4,4.16,26.22h.05c.64-4.24,1.84-10.16,3-15.7l2.26-10.52h4.68l-7.22,33.91h-5.7c-3.25-19.83-4-25.63-4.17-27.47h-.06c-.66,4.19-1.81,10.36-3.11,16.45l-2.36,11Z"/><path class="cls-1" d="M527.1,914.87H520l1-4.47H540.3l-1,4.47H532.2L526,944.31h-5.1Z"/><path class="cls-1" d="M565.18,928.68h-11l-2.35,11.16h12.95l-1.64,4.47h-17.3l7.22-33.91H569.6l-1,4.47H557.07l-1.93,9.34h11Z"/><path class="cls-1" d="M595.58,944.31h-4.06a28.58,28.58,0,0,1,.45-3,7.35,7.35,0,0,1-6.76,3.59c-6.75,0-8.42-7-6.08-18.34,2.59-12.42,7.62-16.66,13.35-16.66,8,0,8.41,6.78,8.24,9h-5.05c0-1.06.32-4.68-3.54-4.68-3.53,0-6.21,4.24-7.91,12.6-1.6,7.9-1.72,13.79,2.85,13.79,3.89,0,5.15-3.88,6-8.19l.48-2.25h-4.91l1-4.46h9.87Z"/><path class="cls-1" d="M618.48,929.21l-3.17,15.1H610.2l7.23-33.91h8.63c7.15,0,9.6,4.59,8.33,10.21-1.07,4.83-4.13,6.18-6.13,6.79,2.39,1.13,3.44,3.55,2.44,8.55a61.26,61.26,0,0,0-1.33,8.36h-4.88c0-1.23.17-3.43,1.24-8.58.94-4.68.1-6.52-3.72-6.52Zm.92-4.22h3.17c3.54,0,5.91-.93,6.67-4.62.7-3.33-.57-5.74-4.3-5.74h-3.35Z"/><path class="cls-1" d="M650.73,934.91l-4,9.4h-5.17l14.79-33.91h6.89l.75,33.91h-5l-.07-9.4Zm8.12-4.4c-.08-7.22-.08-12.94.07-16.07h-.13c-1.08,3.2-3.46,9.13-6.27,16.07Z"/><path class="cls-1" d="M683.46,910.4h6.78c9.13,0,11.81,6.89,9.48,18.11-2.22,10.68-6,15.8-14.84,15.8h-8.64Zm-1.23,29.76h2.12c5.29,0,8.21-2.17,10.16-11.83,2.11-10.37.48-13.71-5.17-13.71h-1.72Z"/><path class="cls-1" d="M733.49,928.82c-2.27,10.5-6.45,16-12.93,16-8.45,0-9.74-8.11-7.38-18.94,2-9.37,6.16-16.06,12.85-16.06C734.05,909.85,736,917,733.49,928.82Zm-15.24-2.26c-1.64,7.73-1.81,13.9,2.64,13.9,3.55,0,5.6-3.74,7.5-12.17,1.72-7.65,2.3-14-2.56-14C722,914.27,719.79,919.31,718.25,926.56Z"/><path class="cls-1" d="M769.65,910.4h6.79c9.13,0,11.8,6.89,9.48,18.11-2.22,10.68-6,15.8-14.84,15.8h-8.65Zm-1.22,29.76h2.12c5.29,0,8.2-2.17,10.16-11.83,2.1-10.37.48-13.71-5.17-13.71h-1.72Z"/><path class="cls-1" d="M815.93,928.68h-11l-2.35,11.16h12.95l-1.64,4.47h-17.3l7.22-33.91h16.55l-1,4.47H807.82l-1.93,9.34h11Z"/><path class="cls-1" d="M852.63,910.4h7.69c7.39,0,10.31,4.81,8.86,11.53-1.33,6.15-5.83,8.51-11.57,8.51h-4.15l-2.93,13.87h-5.12Zm1.76,15.76H858c3.46,0,5.67-1.55,6.36-5.14s-.54-6.3-4.3-6.3h-3.21Z"/><path class="cls-1" d="M885,910.4h5.11l-6.25,29.44h11.75l-1.44,4.47H877.75Z"/><path class="cls-1" d="M915.22,934.91l-4,9.4h-5.17s14.78-33.91,14.79-33.91h6.88l.76,33.91h-5l-.07-9.4Zm8.12-4.4c-.08-7.22-.08-12.94.07-16.07h-.14c-1.07,3.2-3.45,9.13-6.26,16.07Z"/><path class="cls-1" d="M959.25,944.31h-4.06a28.58,28.58,0,0,1,.45-3,7.35,7.35,0,0,1-6.76,3.59c-6.75,0-8.42-7-6.08-18.34,2.59-12.42,7.62-16.66,13.35-16.66,8,0,8.41,6.78,8.24,9h-5c0-1.06.32-4.68-3.54-4.68-3.53,0-6.21,4.24-7.91,12.6-1.6,7.9-1.72,13.79,2.85,13.79,3.89,0,5.15-3.88,6-8.19l.48-2.25h-4.9l1-4.46h9.86Z"/><path class="cls-1" d="M981,934.91l-4,9.4h-5.17l14.78-33.91h6.89l.76,33.91h-5l-.07-9.4Zm8.12-4.4c-.08-7.22-.08-12.94.07-16.07h-.13c-1.07,3.2-3.45,9.13-6.26,16.07Z"/><path class="cls-1" d="M1012.1,935.19c0,2.69,1.06,5.48,4.49,5.48,2.45,0,4.11-1.43,4.62-4s-.23-5-4.09-8c-5-3.94-6.8-7-6-11.49.75-4.16,3.73-7.26,8.93-7.26,8,0,9,6.32,8.7,9.21h-4.88c0-1.79-.41-5-4-5a3.72,3.72,0,0,0-3.89,3.43c-.41,2.32.3,3.93,4.22,6.95,5.84,4.5,7.1,8,6,12.94-.94,4.23-4.07,7.5-9.64,7.5-8.14,0-9.66-5.54-9.36-9.66Z"/><path class="cls-1" d="M225.91,299.12l-6.75,8.73-33.48-25.92a1.63,1.63,0,0,0-1.14-.33,1.44,1.44,0,0,0-1,.55l-2.6,3.37a1.39,1.39,0,0,0-.28,1.13,1.63,1.63,0,0,0,.61,1l33.49,25.91L208,322.31,175.22,297q-8.22-6.37-2.25-14.1l6-7.73q6-7.74,14.21-1.37Z"/><path class="cls-1" d="M235.71,274l8.18-9.07,6.8,6.13-15.57,17.26-37.89-34.16,15.58-17.28,6.68,6-8.2,9.08,8.91,8,7.66-8.5,6.44,5.82-7.67,8.49Z"/><path class="cls-1" d="M256.69,236.59l-5.62-5.88,10.56-10.06,12.95,13.57q7.19,7.53.12,14.28l-7.19,6.86c-4.71,4.5-9.48,4.24-14.26-.79l-21.94-23q-7.19-7.53-.11-14.28l7.18-6.86q7.08-6.75,14.27.78l3.31,3.48L248.38,222l-4.25-4.46a1.48,1.48,0,0,0-1.07-.49,1.32,1.32,0,0,0-1.1.39l-3.59,3.43a1.32,1.32,0,0,0-.44,1.08,1.58,1.58,0,0,0,.45,1.09l23.73,24.87a1.59,1.59,0,0,0,1.07.5,1.43,1.43,0,0,0,1.11-.39l3.59-3.43a1.46,1.46,0,0,0,.44-1.07,1.58,1.58,0,0,0-.45-1.1l-8.22-8.62Z"/><path class="cls-1" d="M288.22,181.67l20,24.72q6.52,8.1-1.07,14.24L299,227.21q-7.62,6.15-14.15-2l-20-24.72q-6.54-8.1,1.07-14.24l8.15-6.59Q281.68,173.58,288.22,181.67Zm12.16,32.64-21.6-26.75a1.56,1.56,0,0,0-1-.58,1.43,1.43,0,0,0-1.13.29l-3.87,3.12a1.44,1.44,0,0,0-.52,1.05,1.56,1.56,0,0,0,.36,1.13l21.59,26.74a1.65,1.65,0,0,0,1,.59,1.42,1.42,0,0,0,1.13-.3l3.86-3.13a1.35,1.35,0,0,0,.53-1A1.52,1.52,0,0,0,300.38,214.31Z"/><path class="cls-1" d="M337.36,187.37l-4.43-6.53,8.68-5.89,3.71,5.49q5.85,8.61-2.24,14.1l-8.22,5.58q-8.1,5.48-13.94-3.13l-17.84-26.3q-5.83-8.61,2.25-14.1l8.23-5.57q8.08-5.51,13.93,3.12l2.7,4L321.51,164l-3.45-5.09a1.58,1.58,0,0,0-1-.67,1.39,1.39,0,0,0-1.14.2l-4.12,2.79a1.45,1.45,0,0,0-.61,1,1.59,1.59,0,0,0,.27,1.16l19.29,28.45a1.56,1.56,0,0,0,1,.67,1.34,1.34,0,0,0,1.15-.21l4.11-2.78a1.43,1.43,0,0,0,.62-1A1.58,1.58,0,0,0,337.36,187.37Z"/><path class="cls-1" d="M346,131.87l25.82,44-9.51,5.58-25.82-44Z"/><path class="cls-1" d="M393.74,117.71l14.19,28.43q4.65,9.31-4.1,13.68l-9.39,4.68q-8.74,4.37-13.39-4.95l-14.2-28.42q-4.64-9.33,4.11-13.68l9.37-4.69C386.17,109.86,390.64,111.49,393.74,117.71Zm4.87,34.49-15.35-30.76a1.56,1.56,0,0,0-.88-.79,1.31,1.31,0,0,0-1.16,0l-4.45,2.22a1.33,1.33,0,0,0-.73.9,1.51,1.51,0,0,0,.1,1.18l15.35,30.76a1.56,1.56,0,0,0,.88.79,1.35,1.35,0,0,0,1.16-.06l4.45-2.21a1.37,1.37,0,0,0,.74-.9A1.6,1.6,0,0,0,398.61,152.2Z"/><path class="cls-1" d="M461.55,95.14l-9.9,3.46-1.32-3.79a1.64,1.64,0,0,0-.78-.9,1.35,1.35,0,0,0-1.16-.09l-4.09,1.43a1.43,1.43,0,0,0-.85.8,1.58,1.58,0,0,0,0,1.19l3,8.55a1.61,1.61,0,0,0,.78.9,1.39,1.39,0,0,0,1.16.09l6.7-2.34q9.29-3.09,12.67,6.58l3.62,10.35q3.45,9.82-5.78,13.06l-8.78,3.07q-9.22,3.24-12.67-6.59l-1.75-5,9.9-3.47,1.88,5.35a1.57,1.57,0,0,0,.77.91,1.39,1.39,0,0,0,1.16.09l4.61-1.62a1.38,1.38,0,0,0,.85-.8,1.51,1.51,0,0,0,.05-1.18l-3.32-9.45a1.59,1.59,0,0,0-.77-.9,1.39,1.39,0,0,0-1.16-.09l-6.7,2.34q-9.22,3.24-12.67-6.58l-3.36-9.61q-3.45-9.81,5.79-13l8.25-2.9q9.24-3.23,12.67,6.6Z"/><path class="cls-1" d="M496.42,114.68l11.81-3.17,2.37,8.83-22.47,6L474.89,77.11l22.47-6,2.33,8.67-11.8,3.18L491,94.51l11.05-3,2.26,8.37-11.05,3Z"/><path class="cls-1" d="M534.32,94.63l-1.53-8,14.33-2.73,3.52,18.43q2,10.22-7.64,12.06l-9.76,1.86q-9.6,1.83-11.57-8.38l-6-31.22c-1.29-6.81,1.25-10.83,7.66-12.06l9.76-1.86q9.6-1.83,11.56,8.39l.89,4.72-10.3,2-1.16-6a1.51,1.51,0,0,0-.63-1,1.36,1.36,0,0,0-1.13-.27l-4.87.93a1.39,1.39,0,0,0-1,.67,1.55,1.55,0,0,0-.22,1.16l6.45,33.77a1.58,1.58,0,0,0,.63,1,1.38,1.38,0,0,0,1.14.27l4.88-.94a1.34,1.34,0,0,0,1-.65,1.64,1.64,0,0,0,.22-1.18l-2.23-11.69Z"/><path class="cls-1" d="M577.89,57.25l11-1.2,4.46,41.16q1.13,10.35-8.6,11.4l-9.71,1q-9.72,1.07-10.85-9.28L559.7,59.23l11-1.2,4.57,42.1a1.6,1.6,0,0,0,.55,1.05,1.41,1.41,0,0,0,1.11.35l4.23-.45a1.42,1.42,0,0,0,1-.59,1.55,1.55,0,0,0,.31-1.15Z"/><path class="cls-1" d="M619.3,84.64l.55,20.89-11,.29-1.33-51,19.62-.51q9.78-.27,10,10.14l.15,5.91c.12,4.21-1.32,6.92-4.28,8.16q4,1.32,4.11,6.36l.53,20.18-11,.29L626.12,86c0-1.05-.53-1.56-1.53-1.54ZM618.71,62l.39,14.9,5.83-.16a1.35,1.35,0,0,0,1.05-.49,1.57,1.57,0,0,0,.4-1.13l-.3-11.74a1.61,1.61,0,0,0-.46-1.09,1.39,1.39,0,0,0-1.08-.44Z"/><path class="cls-1" d="M684.47,65.64l-1.81,31.72q-.58,10.4-10.35,9.84l-10.46-.6q-9.76-.55-9.18-10.95l1.82-31.72q.59-10.4,10.35-9.83l10.46.59Q685.07,55.25,684.47,65.64ZM671.57,98l2-34.32a1.56,1.56,0,0,0-.37-1.13,1.43,1.43,0,0,0-1-.53l-5-.28a1.41,1.41,0,0,0-1.1.41,1.6,1.6,0,0,0-.49,1.08l-2,34.32a1.62,1.62,0,0,0,.37,1.13,1.4,1.4,0,0,0,1,.53l5,.28a1.34,1.34,0,0,0,1.08-.41A1.56,1.56,0,0,0,671.57,98Z"/><path class="cls-1" d="M724.37,70.17,726,60.93l27.16,4.89-1.65,9.23-8.16-1.46-7.36,41-10.87-2,7.37-41Z"/><path class="cls-1" d="M771.74,101.11l-5.25,20.23-10.68-2.78,12.81-49.38,19,4.93c6.3,1.64,8.6,5.82,6.85,12.53L793,92.37q-1.57,6.1-6.38,6.65c2.31,1.58,3,4,2.2,7.25l-5.07,19.53L773.07,123l4.84-18.69a1.37,1.37,0,0,0-1.06-1.91Zm5.68-21.9-3.74,14.42,5.65,1.47a1.42,1.42,0,0,0,1.15-.19,1.62,1.62,0,0,0,.69-1l3-11.37A1.59,1.59,0,0,0,784,81.4a1.39,1.39,0,0,0-.91-.73Z"/><path class="cls-1" d="M833.77,87.8q9.22,3.24,5.78,13l-13.7,39.07-10.41-3.66,5.66-16.14-7.51-2.64-5.67,16.15L797.51,130l13.7-39.06q3.43-9.82,12.67-6.59ZM816.4,109.45l7.52,2.63,5.67-16.14a1.63,1.63,0,0,0-.05-1.19,1.37,1.37,0,0,0-.85-.8L824,92.3a1.43,1.43,0,0,0-1.16.1,1.57,1.57,0,0,0-.77.89Z"/><path class="cls-1" d="M866.47,157.43l-10.08-4.51,17.3-38.64a1.58,1.58,0,0,0,0-1.19,1.37,1.37,0,0,0-.77-.86l-3.89-1.74a1.38,1.38,0,0,0-1.16,0,1.59,1.59,0,0,0-.85.82L849.77,150l-10.08-4.51,16.92-37.78q4.25-9.49,13.17-5.51l8.93,4q8.92,4,4.67,13.49Z"/><path class="cls-1" d="M922.14,128.26q8.57,4.73,3.55,13.84l-15.31,27.84q-5,9.12-13.58,4.41l-.14-.08-1.91,3.45a1,1,0,0,0,.48,1.61l2.2,1.22-3.73,6.76-4.07-2.24a7.83,7.83,0,0,1-4.16-4.94,7.47,7.47,0,0,1,.62-5.64l2.55-4.63-1-.57q-8.57-4.71-3.54-13.83l15.31-27.84q5-9.12,13.59-4.41Zm-12.46,3.5-16.57,30.13a1.63,1.63,0,0,0-.14,1.17,1.34,1.34,0,0,0,.7.93l4.35,2.39a1.36,1.36,0,0,0,1.16.1,1.58,1.58,0,0,0,.92-.76l16.56-30.11a1.62,1.62,0,0,0,.16-1.18,1.41,1.41,0,0,0-.71-.93l-4.35-2.4a1.42,1.42,0,0,0-1.16-.09A1.64,1.64,0,0,0,909.68,131.76Z"/><path class="cls-1" d="M960.91,153l9.22,6.08-22.82,34.55q-5.73,8.67-13.89,3.29l-8.16-5.39q-8.16-5.38-2.42-14.07L945.65,143l9.21,6.08-23.33,35.33a1.54,1.54,0,0,0-.25,1.16,1.36,1.36,0,0,0,.62,1l3.56,2.35a1.41,1.41,0,0,0,1.15.19,1.51,1.51,0,0,0,1-.68Z"/><path class="cls-1" d="M993.69,176.64l-30.86,40.62L954,210.57,984.91,170Z"/><path class="cls-1" d="M989.23,226.85l9.16,7.83-6,7.08-17.55-15L1008,188l8.38,7.18Z"/><path class="cls-1" d="M1044.73,221.18l-35.4,36.73-7.94-7.65,35.39-36.74Z"/><path class="cls-1" d="M1071.48,249.26q6.57,7.26-1.14,14.24L1048,283.78q-7.71,7-14.27-.25l-13.61-15,37.79-34.27Zm-31.86,27.19,24.3-22a1.52,1.52,0,0,0,.52-1.06,1.39,1.39,0,0,0-.36-1.11l-4.34-4.79-26.64,24.15,4.34,4.79a1.38,1.38,0,0,0,1.06.47A1.62,1.62,0,0,0,1039.62,276.45Z"/><path class="cls-1" d="M1103.37,287.07q5.93,7.77-2.36,14.08l-32.92,25.09-6.69-8.79L1075,307.09l-4.83-6.34-13.6,10.37-6.69-8.79,32.92-25.08q8.3-6.31,14.21,1.47ZM1077,295.59l4.83,6.33,13.61-10.37a1.55,1.55,0,0,0,.61-1,1.41,1.41,0,0,0-.26-1.13l-3-4a1.43,1.43,0,0,0-1-.56,1.62,1.62,0,0,0-1.14.33Z"/><path class="cls-1" d="M1130.44,328q5.24,8.25-3.54,13.83l-25.48,16.21q-8.79,5.58-14-2.67l-10.87-17.09,43-27.38Zm-36,21.4,27.68-17.6a1.58,1.58,0,0,0,.69-1,1.41,1.41,0,0,0-.16-1.15l-3.48-5.46-30.33,19.29,3.46,5.46a1.33,1.33,0,0,0,1,.64A1.53,1.53,0,0,0,1094.43,349.43Z"/><path class="cls-1" d="M1135.68,402l7.36-3.46,6.21,13.19-17,8q-9.42,4.44-13.57-4.41l-4.24-9q-4.15-8.85,5.24-13.28l28.76-13.54q9.4-4.45,13.58,4.4l4.22,9q4.18,8.85-5.24,13.28l-4.35,2.05-4.47-9.49,5.56-2.62a1.55,1.55,0,0,0,.81-.86,1.37,1.37,0,0,0,0-1.17l-2.12-4.49a1.42,1.42,0,0,0-.88-.76,1.56,1.56,0,0,0-1.18.08l-31.1,14.65a1.57,1.57,0,0,0-.81.87,1.35,1.35,0,0,0,0,1.16l2.11,4.49a1.36,1.36,0,0,0,.88.76,1.6,1.6,0,0,0,1.18-.07l10.77-5.08Z"/><path class="cls-1" d="M1184.26,436.72q3.43,9.16-6.32,12.81L1139.17,464l-3.87-10.34,16-6-2.79-7.45-16,6-3.86-10.34,38.77-14.51q9.75-3.63,13.17,5.52Zm-27.75.53,2.79,7.46,16-6a1.55,1.55,0,0,0,.88-.79,1.39,1.39,0,0,0,.08-1.16l-1.74-4.65a1.44,1.44,0,0,0-.81-.83,1.56,1.56,0,0,0-1.2,0Z"/><path class="cls-1" d="M1167,483.29,1146.84,489l-3-10.61,49.1-13.87,5.34,18.89q2.65,9.4-7.36,12.24l-5.69,1.61q-6.08,1.71-9-2.14c-.2,2.78-1.91,4.63-5.15,5.55l-19.43,5.48-3-10.62,18.59-5.25a1.36,1.36,0,0,0,1.11-1.87Zm21.77-6.14-14.34,4,1.59,5.62a1.41,1.41,0,0,0,.75.89,1.56,1.56,0,0,0,1.18.12l11.3-3.19a1.55,1.55,0,0,0,.94-.72,1.33,1.33,0,0,0,.17-1.14Z"/><path class="cls-1" d="M1209.79,530.2q1.88,9.6-8.35,11.59l-40.63,7.91-2.11-10.82,16.79-3.28-1.52-7.82-16.79,3.27-2.11-10.83,40.63-7.92q10.21-2,12.08,7.6Zm-27.46-4.05,1.52,7.81,16.8-3.26a1.67,1.67,0,0,0,1-.64,1.45,1.45,0,0,0,.26-1.14l-1-4.87a1.41,1.41,0,0,0-.67-1,1.6,1.6,0,0,0-1.17-.21Z"/><path class="cls-1" d="M1166.23,593.25l-1.22-11,42.09-4.66a1.6,1.6,0,0,0,1-.55,1.4,1.4,0,0,0,.36-1.11l-.47-4.24a1.35,1.35,0,0,0-.6-1,1.56,1.56,0,0,0-1.14-.31l-42.08,4.66-1.22-11,41.15-4.56c6.9-.77,10.71,2.1,11.41,8.57l1.09,9.72q1.06,9.72-9.27,10.86Z"/><path class="cls-1" d="M1208.63,603.44l9.38-.32,1,27.58-9.38.33-.28-8.28-41.61,1.43-.38-11,41.61-1.43Z"/><path class="cls-1" d="M1218.52,657l-51-1.27.28-11,51,1.28Z"/><path class="cls-1" d="M1208.37,699.81l-34.19-18.23-1.31,15.17-8.17-.71,2.28-26.63,6.77.59,34.51,18.32,1.27-14.77,8.24.72-2.25,26.16Z"/><path class="cls-1" d="M1210.92,737.33q-1.59,9.64-11.87,7.93l-40.83-6.78,1.81-10.9,16.87,2.8,1.31-7.85-16.87-2.8,1.8-10.89,40.84,6.78q10.26,1.73,8.67,11.36Zm-24.3-13.4-1.31,7.86,16.88,2.81a1.65,1.65,0,0,0,1.16-.25,1.4,1.4,0,0,0,.64-1l.81-4.91a1.35,1.35,0,0,0-.29-1.12,1.52,1.52,0,0,0-1-.61Z"/><path class="cls-1" d="M1199.6,785.22q-2.41,9.46-12.51,6.89l-29.26-7.46q-10.08-2.58-7.66-12l5-19.63,49.42,12.61Zm-40.25-11.58,31.78,8.12a1.7,1.7,0,0,0,1.17-.15,1.46,1.46,0,0,0,.73-.92l1.59-6.26-34.84-8.9-1.59,6.27a1.3,1.3,0,0,0,.2,1.14A1.55,1.55,0,0,0,1159.35,773.64Z"/><path class="cls-1" d="M1185.59,832.91q-3.24,9.24-13,5.8l-39.09-13.64,3.64-10.41,16.15,5.63,2.63-7.52-16.16-5.63,3.65-10.43,39.08,13.64q9.81,3.42,6.6,12.66Zm-21.68-17.34-2.62,7.53,16.15,5.64a1.61,1.61,0,0,0,1.18,0,1.37,1.37,0,0,0,.8-.85l1.64-4.69a1.39,1.39,0,0,0-.1-1.16,1.57,1.57,0,0,0-.89-.77Z"/></g></g></svg>