<svg xmlns="http://www.w3.org/2000/svg" viewBox="0 0 1758.47 411.66"><defs><style>.cls-1{fill:#ed1b24;}</style></defs><g id="Capa_2" data-name="Capa 2"><g id="Layer_1" data-name="Layer 1"><path class="cls-1" d="M324.88,86.78a167.11,167.11,0,0,0-94.5-47.54V62c68.79,11.71,121.33,71.74,121.33,143.81,0,1.28,0,2.56,0,3.83h22.48c0-1.27.05-2.55.05-3.83A167.32,167.32,0,0,0,324.88,86.78Z"/><path class="cls-1" d="M205.83,37.47A168.44,168.44,0,0,0,39.38,180.3H62.19C74.3,112,134.1,60,205.83,60l2.07,0V37.49Z"/><path class="cls-1" d="M60,205.83c0-1,0-2,0-3.05H37.5c0,1,0,2,0,3.05A168.43,168.43,0,0,0,179.88,372.21V349.39C111.78,337.12,60,277.41,60,205.83Z"/><path class="cls-1" d="M349.33,232.15c-12.43,67.92-72.05,119.56-143.5,119.56-1.16,0-2.31,0-3.46,0v22.48c1.15,0,2.3,0,3.46,0a168.44,168.44,0,0,0,166.33-142Z"/><rect class="cls-1" x="194.59" width="22.48" height="87.06"/><rect class="cls-1" x="194.59" y="324.61" width="22.48" height="87.05"/><rect class="cls-1" y="194.59" width="87.06" height="22.48"/><rect class="cls-1" x="324.6" y="194.59" width="87.06" height="22.48"/><path class="cls-1" d="M109.74,182.1a99.38,99.38,0,0,1,33.14-52.61,57.09,57.09,0,0,0-2,9.83,48.15,48.15,0,0,0,.32,13.89,38.41,38.41,0,0,0,1.84,6.86,35.13,35.13,0,0,0,3.15,6.47l.47.77.88,1.26c.23.33.45.66.7,1l.59.73a11.34,11.34,0,0,0-4.34,6.32c-.47-.15-.93-.28-1.4-.41l-.79-.23c-.4-.11-.8-.19-1.19-.27l-1.48-.31-.91-.13a31.54,31.54,0,0,0-5.31-.41c-.63,0-1.25,0-1.88,0a37.49,37.49,0,0,0-7,1A47.86,47.86,0,0,0,111.57,181C111,181.35,110.34,181.72,109.74,182.1Z"/><path class="cls-1" d="M295.69,198.05c-.6,0-1.2,0-1.8-.05a59.25,59.25,0,0,1-15.51-3.06,107.27,107.27,0,0,1-14.67-6.08c-2.34-1.17-4.7-2.44-7-3.76-2.59-1.5-4.79-2.85-6.71-4.15l-2.18-1.47a.36.36,0,0,0-.2-.06.32.32,0,0,0-.14,0,.36.36,0,0,0-.21.27l-3,17.38a142.25,142.25,0,0,0-16.44-8.71l-.54-13.66c.83-.21,1.64-.44,2.45-.68,1.4-.43,2.78-.91,4.11-1.43a40.14,40.14,0,0,0,7.76-4,20,20,0,0,0,6.2-6.22,12.48,12.48,0,0,0,1.56-4.15,12.19,12.19,0,0,0,.2-2.18,14.79,14.79,0,0,0-.19-2.16.35.35,0,0,0-.35-.3h0a.35.35,0,0,0-.32.37,13.77,13.77,0,0,1,0,2,12.14,12.14,0,0,1-.38,2,11.23,11.23,0,0,1-1.76,3.53,17.85,17.85,0,0,1-6.14,5,37.61,37.61,0,0,1-7.56,2.93c-1.27.35-2.61.67-4,.93s-2.81.5-4,.62l-1.36.14a.34.34,0,0,0-.32.33l-1,14.45A191.08,191.08,0,0,0,203,179.37l-.53-13.6.7-.49c.57-.42,1.13-.85,1.68-1.28,1.11-.89,2.18-1.81,3.18-2.76a39.45,39.45,0,0,0,5.49-6.36,29,29,0,0,0,2.13-3.63,25,25,0,0,0,1.51-3.93,21.45,21.45,0,0,0,.71-4.14,20,20,0,0,0-.23-4.14.35.35,0,0,0-.35-.31h0a.37.37,0,0,0-.33.37,18.45,18.45,0,0,1-.2,4,19.65,19.65,0,0,1-1.05,3.76,23.73,23.73,0,0,1-1.78,3.47,26.66,26.66,0,0,1-2.31,3.13,37.15,37.15,0,0,1-5.69,5.33c-1,.78-2.1,1.53-3.21,2.23-.55.35-1.1.69-1.66,1s-1.14.64-1.65.89l-.82.39a.34.34,0,0,0-.2.3l-1,14.28c-3-.76-6-1.49-9.09-2.15-.73-1-6.19-7.72-14.38-7.72a18.37,18.37,0,0,0-10.2,3.41,11.44,11.44,0,0,0-8.07-3.32,11.12,11.12,0,0,0-1.41.09c-.51-.44-1-.93-1.48-1.41l-.55-.55c-.22-.23-.43-.48-.64-.73l-.91-1-.46-.62a30.28,30.28,0,0,1-3.33-5.37,34.74,34.74,0,0,1-2.28-6,45.52,45.52,0,0,1-1.62-13,55.63,55.63,0,0,1,1.27-11,98.94,98.94,0,0,1,160.14,68.44,26.63,26.63,0,0,1-2.6.65A34.24,34.24,0,0,1,295.69,198.05Z"/><path class="cls-1" d="M205.81,304.82a98.95,98.95,0,0,1-96.63-120.34c1.21-.63,2.3-1.16,3.33-1.61a45.47,45.47,0,0,1,12.59-3.6,35.72,35.72,0,0,1,4.52-.3c.63,0,1.26,0,1.88.06a29.66,29.66,0,0,1,6.24,1l.78.19,1.29.41c.31.1.62.2.93.32l.78.31a21.76,21.76,0,0,1,2.08.91l.86.43a11.48,11.48,0,0,0,4.77,6.65,11.33,11.33,0,0,0,2,1c-3.09,16.18,12,20.51,13.58,20.93,1.81,2.55,3.67,5.08,5.54,7.52l-12.77,6.47a.36.36,0,0,0-.2.3l0,.91c0,.57-.1,1.24-.17,1.87s-.17,1.28-.28,1.92c-.21,1.29-.48,2.58-.8,3.83a36.53,36.53,0,0,1-2.68,7.32,28.06,28.06,0,0,1-2,3.36,24.33,24.33,0,0,1-2.5,3,17.64,17.64,0,0,1-6.6,4.18.36.36,0,0,0-.22.44.36.36,0,0,0,.34.25h.09a20.13,20.13,0,0,0,3.9-1.42,20.45,20.45,0,0,0,3.53-2.26,24.58,24.58,0,0,0,3-2.93,28.94,28.94,0,0,0,2.51-3.39,39.22,39.22,0,0,0,3.71-7.54c.48-1.29.91-2.63,1.29-4,.19-.68.36-1.36.52-2.05l.18-.84,12.73-4.83a190.24,190.24,0,0,0,13.62,15.16L174.63,245a.35.35,0,0,0-.18.42l.4,1.31c.35,1.12.68,2.43,1,3.89s.52,2.7.69,4a37.57,37.57,0,0,1,.26,8.1,18,18,0,0,1-2.2,7.61,11,11,0,0,1-4.24,4.12,12.73,12.73,0,0,1-1.86.83.36.36,0,0,0-.22.44.36.36,0,0,0,.34.25h.09a13.81,13.81,0,0,0,2.06-.67,12.91,12.91,0,0,0,1.94-1,12.44,12.44,0,0,0,3.2-3.05,20.09,20.09,0,0,0,3.3-8.15,40.1,40.1,0,0,0,.61-8.69c0-1.41-.14-2.87-.3-4.33-.09-.85-.2-1.68-.33-2.52L192,242.64a142.77,142.77,0,0,0,14.44,11.73l-14.83,9.53a.34.34,0,0,0-.17.3.35.35,0,0,0,.17.3l2.2,1.43c1.94,1.26,4.05,2.75,6.44,4.55,2.13,1.61,4.22,3.29,6.2,5a107.34,107.34,0,0,1,11.35,11.12c.52.61,1.06,1.22,1.6,1.83,3,3.4,6.1,6.9,8,10.78a.37.37,0,0,0,.32.2l.15,0a.37.37,0,0,0,.18-.47A61.7,61.7,0,0,0,219.65,285a109.4,109.4,0,0,0-11-12c-1.94-1.85-4-3.68-6.08-5.44-1.3-1.09-2.52-2.09-3.72-3l13-6.59c16.46,10.36,33.57,15.62,50.85,15.62a78.45,78.45,0,0,0,16.94-1.81A99,99,0,0,1,205.81,304.82Z"/><path class="cls-1" d="M289.2,259.12c-2.22-13.53-10.35-38.23-39.49-58.47l1-14.52c1.34.73,2.74,1.47,4.25,2.24,2.44,1.23,4.92,2.4,7.38,3.47a109.33,109.33,0,0,0,15.38,5.44,62,62,0,0,0,15.85,2.3h.31a35.71,35.71,0,0,0,8.13-1,24,24,0,0,0,2.44-.73c.23,2.86.35,5.47.35,8A98.58,98.58,0,0,1,289.2,259.12Z"/><path class="cls-1" d="M484.37,101.6H451.65l6.45-29.89H556l-6.45,29.89H516.63L477.74,285H445.48Z"/><path class="cls-1" d="M624.75,172.33l-13.21,62.56c-7.34,35.16-19.08,52.68-53.92,52.68-32.84,0-47.17-20.08-39.79-54.8L532,166.7c6.51-31,20.75-49.52,53.44-49.52C618.5,117.18,631.73,138.67,624.75,172.33Zm-60.22-5.63-15.32,71.85c-2.94,13.48.49,22.21,11.66,22.21,10.28,0,14.44-8.31,17.45-22.51l15.29-71.34c2.62-12.53,1.89-22.93-11.17-22.93C570.76,144,567.36,153.66,564.53,166.7Z"/><path class="cls-1" d="M646,119.73h17.47l9.26-39.9h31.94l-9.22,39.9H716l-5.89,27.65H689.54L667.29,247.43c-1.75,8.43-.92,13.86,8.74,13.86a61.68,61.68,0,0,0,10.24-.75l-5.33,24.51a86,86,0,0,1-20.23,2.44c-20.29,0-33-6.67-26.84-35.29L657,147.38H640.09Z"/><path class="cls-1" d="M793.17,244.21c-2.69,13.14-7.49,35.34-8.17,40.8H753.63c.35-3.14,1-8.36,2-13.39-7.74,10.9-15.84,15.95-29.3,15.95-25.93,0-29.71-24.73-24.32-50.16,8.39-38.44,27.11-48.49,65.8-54.31,2.2-.32,4.16-.64,6.39-1l4.38-20.06c2.5-11.65,1.53-19.51-8.37-19.51s-12.14,8.41-15,19.94l-1.2,5.05H722.1l.6-2.73c4.47-20.59,10-47.65,50-47.65,33.17,0,43.55,17.42,37.92,44.27Zm-23.74-36.92-5,1c-17,3.67-25.53,9.12-29.91,27.59-2.5,11.19-2.85,23.48,8.78,23.48,12.15,0,17.38-11.38,22.2-33.93Z"/><path class="cls-1" d="M811.68,285l47.26-222.6H891.2L843.94,285Z"/><path class="cls-1" d="M1018.3,224.34l-1,3.87c-7.23,29-13.6,59.92-57.07,59.92-38.09,0-46.28-25.14-38.66-60.58l20.82-97.43c8.34-38.38,19.1-61.53,55-61.53,46,0,46,34,39.57,59.68l-.71,2.9h-32.51l1.77-8.26c3.66-17.2,2-26.39-9.92-26.39-10.65,0-14.59,8.66-18.61,27.42L954.19,231.33c-3.69,17.94-3.41,29.15,9.36,29.15,11,0,15.11-9.09,19.53-28.26l1.84-7.88Z"/><path class="cls-1" d="M1141.72,172.33l-13.21,62.56c-7.34,35.16-19.08,52.68-53.92,52.68-32.84,0-47.17-20.08-39.79-54.8l14.13-66.07c6.51-31,20.76-49.52,53.45-49.52C1135.47,117.18,1148.71,138.67,1141.72,172.33Zm-60.21-5.63-15.33,71.85c-2.94,13.48.5,22.21,11.66,22.21,10.28,0,14.44-8.31,17.46-22.51l15.29-71.34c2.61-12.53,1.89-22.93-11.18-22.93C1087.74,144,1084.33,153.66,1081.51,166.7Z"/><path class="cls-1" d="M1165.72,170.72c7-33.58,9.19-43.72,10.46-51h31.62a126,126,0,0,1-2.06,12.5,38.32,38.32,0,0,1,31.12-15c21.36,0,30.63,16.13,25.41,40.61L1235.17,285h-32.26l25.34-119.4c3.23-14.91-.54-21.59-9.8-21.59-10.83,0-16.41,8.31-20.94,30.19L1173.79,285h-32.26Z"/><path class="cls-1" d="M1284,119.73h17.47l9.26-39.9h31.94l-9.22,39.9H1354l-5.89,27.65h-20.57l-22.25,100.05c-1.75,8.43-.92,13.86,8.74,13.86a61.68,61.68,0,0,0,10.24-.75l-5.33,24.51a86,86,0,0,1-20.23,2.44c-20.29,0-33-6.67-26.84-35.29L1295,147.38h-16.91Z"/><path class="cls-1" d="M1359.51,175.74c5.71-27.44,9.5-44.1,11.42-56h30.54a203.15,203.15,0,0,1-4.16,24.47c9-20.41,24.23-26.87,39.26-26.95l-8.5,38.11c-21.68-.05-34.32,8.95-41.12,41.13L1368.58,285h-32.26Z"/><path class="cls-1" d="M1533.21,172.33,1520,234.89c-7.35,35.16-19.08,52.68-53.92,52.68-32.84,0-47.18-20.08-39.79-54.8l14.12-66.07c6.52-31,20.76-49.52,53.45-49.52C1527,117.18,1540.19,138.67,1533.21,172.33ZM1473,166.7l-15.32,71.85c-2.94,13.48.49,22.21,11.66,22.21,10.28,0,14.44-8.31,17.45-22.51l15.29-71.34c2.62-12.53,1.89-22.93-11.17-22.93C1479.22,144,1475.82,153.66,1473,166.7Z"/><path class="cls-1" d="M1533,285l47.26-222.6h32.26L1565.28,285Z"/><path class="cls-1" d="M1683.83,285l10.84-52.35h-56.39l5.29-23.72,71-131.49h43.89l-27.66,129H1746l-7.48,26.24H1725.2L1714.08,285Zm25.36-117.94c4.44-20.77,9.9-42.66,14.58-63.2h-.32c-14.91,32.31-31.79,70.85-48.56,102.55h25.67Z"/><path class="cls-1" d="M546.84,344.52l6.79-31.88h5.62c3.07,18.1,3.77,22.95,3.91,24.65h.05c.6-4,1.73-9.55,2.84-14.76l2.12-9.89h4.4l-6.79,31.88h-5.36c-3-18.64-3.75-24.1-3.92-25.83h0c-.63,3.95-1.7,9.74-2.93,15.47l-2.21,10.36Z"/><path class="cls-1" d="M598.62,329.82H588.26l-2.2,10.5h12.17l-1.55,4.2H580.42l6.79-31.88h15.56l-.95,4.2H591l-1.81,8.79h10.36Z"/><path class="cls-1" d="M627,344.52h-3.82a26.92,26.92,0,0,1,.42-2.87A6.91,6.91,0,0,1,617.2,345c-6.35,0-7.92-6.62-5.72-17.25,2.44-11.67,7.17-15.66,12.55-15.66,7.55,0,7.91,6.38,7.75,8.47H627c0-1,.3-4.4-3.33-4.4-3.31,0-5.84,4-7.44,11.84-1.49,7.42-1.61,13,2.68,13,3.66,0,4.85-3.65,5.69-7.7l.45-2.12h-4.6l.91-4.19h9.28Z"/><path class="cls-1" d="M662.86,330c-2.13,9.87-6.06,15.07-12.15,15.07-8,0-9.16-7.62-6.94-17.81,1.91-8.81,5.79-15.1,12.07-15.1C663.39,312.12,665.25,318.81,662.86,330Zm-14.33-2.12c-1.54,7.26-1.7,13.06,2.48,13.06,3.34,0,5.27-3.51,7-11.44,1.62-7.19,2.17-13.18-2.4-13.18C652.07,316.28,650,321,648.53,327.84Z"/><path class="cls-1" d="M692.58,335.8c-1,3.59-3.37,9.24-10.17,9.24-6.55,0-9.63-5-6.95-17.36,2-9,5.64-15.56,12.53-15.56s7.8,5.56,7.44,9h-4.7c0-1.68.24-5-3.21-5s-5.74,4.63-7.21,11.79c-1.82,8.8-1.11,13,2.52,13,3.08,0,4.54-3.63,5-5.18Z"/><path class="cls-1" d="M715.19,312.64l-6.79,31.88h-4.8l6.79-31.88Z"/><path class="cls-1" d="M744.37,330c-2.13,9.87-6.06,15.07-12.16,15.07-7.94,0-9.15-7.62-6.94-17.81,1.92-8.81,5.8-15.1,12.08-15.1C744.9,312.12,746.76,318.81,744.37,330ZM730,327.84c-1.54,7.26-1.7,13.06,2.48,13.06,3.34,0,5.27-3.51,7.05-11.44,1.62-7.19,2.17-13.18-2.4-13.18C733.58,316.28,731.49,321,730,327.84Z"/><path class="cls-1" d="M776.44,336c0,2.53,1,5.14,4.22,5.14a4.2,4.2,0,0,0,4.34-3.77c.49-2.52-.22-4.71-3.84-7.57-4.7-3.7-6.4-6.56-5.64-10.8.71-3.91,3.51-6.83,8.4-6.83,7.56,0,8.43,5.95,8.18,8.66h-4.59c0-1.68-.38-4.73-3.76-4.73a3.5,3.5,0,0,0-3.66,3.23c-.38,2.19.29,3.69,4,6.53,5.48,4.23,6.67,7.49,5.63,12.17-.88,4-3.83,7-9.06,7-7.65,0-9.09-5.21-8.8-9.08Z"/><path class="cls-1" d="M819.16,329.82H808.79l-2.2,10.5h12.17l-1.54,4.2H801l6.79-31.88h15.56l-.95,4.2H811.53l-1.82,8.79h10.37Z"/><path class="cls-1" d="M847.48,344.52h-3.82c.05-.72.25-1.91.43-2.87a6.91,6.91,0,0,1-6.36,3.38c-6.34,0-7.92-6.62-5.71-17.25,2.44-11.67,7.16-15.66,12.55-15.66,7.55,0,7.9,6.38,7.75,8.47h-4.75c0-1,.3-4.4-3.34-4.4-3.31,0-5.83,4-7.43,11.84-1.5,7.42-1.62,13,2.68,13,3.66,0,4.85-3.65,5.69-7.7l.44-2.12H841l.92-4.19h9.27Z"/><path class="cls-1" d="M872.73,312.64l-4.64,21.83c-.69,3.18-.46,6.49,3.43,6.49,3.66,0,4.67-3.13,5.41-6.51l4.63-21.81h4.8l-4.67,22c-1.24,5.85-3.24,10.43-10.79,10.43-6.86,0-8.89-4.55-7.66-10.33l4.69-22.06Z"/><path class="cls-1" d="M901.67,330.33l-3,14.19h-4.8l6.79-31.88h8.12c6.72,0,9,4.31,7.84,9.6a7.81,7.81,0,0,1-5.77,6.38c2.25,1.07,3.23,3.35,2.29,8a59.15,59.15,0,0,0-1.25,7.86h-4.59c0-1.15.16-3.22,1.17-8.06.89-4.4.09-6.13-3.5-6.13Zm.87-4h3c3.33,0,5.56-.88,6.27-4.34.65-3.13-.53-5.4-4-5.4H904.6Z"/><path class="cls-1" d="M946.75,330c-2.13,9.87-6.06,15.07-12.15,15.07-8,0-9.16-7.62-6.94-17.81,1.91-8.81,5.79-15.1,12.07-15.1C947.28,312.12,949.14,318.81,946.75,330Zm-14.33-2.12c-1.54,7.26-1.7,13.06,2.48,13.06,3.34,0,5.27-3.51,7.05-11.44,1.62-7.19,2.17-13.18-2.4-13.18C936,316.28,933.87,321,932.42,327.84Z"/><path class="cls-1" d="M952.05,349a49.56,49.56,0,0,0,4.71-11.23h4.64A34.59,34.59,0,0,1,956.21,349Z"/><path class="cls-1" d="M990.23,316.84h-6.72l.91-4.2h18.21l-.91,4.2H995l-5.87,27.68h-4.8Z"/><path class="cls-1" d="M1015.17,330.33l-3,14.19h-4.8l6.79-31.88h8.12c6.72,0,9,4.31,7.83,9.6a7.8,7.8,0,0,1-5.76,6.38c2.25,1.07,3.23,3.35,2.29,8a59.15,59.15,0,0,0-1.25,7.86h-4.59c0-1.15.16-3.22,1.17-8.06.89-4.4.09-6.13-3.5-6.13Zm.87-4h3c3.33,0,5.55-.88,6.27-4.34.65-3.13-.53-5.4-4-5.4h-3.15Z"/><path class="cls-1" d="M1045.46,335.68l-3.73,8.84h-4.86l13.89-31.88h6.48l.72,31.88h-4.7l-.07-8.84Zm7.64-4.13c-.07-6.8-.07-12.17.07-15.12H1053c-1,3-3.24,8.59-5.89,15.12Z"/><path class="cls-1" d="M1069.43,344.52l6.79-31.88h5.61c3.08,18.1,3.77,22.95,3.92,24.65h0c.6-4,1.73-9.55,2.85-14.76l2.11-9.89h4.41l-6.79,31.88H1083c-3-18.64-3.75-24.1-3.93-25.83h0c-.63,3.95-1.71,9.74-2.93,15.47l-2.21,10.36Z"/><path class="cls-1" d="M1124.31,330c-2.13,9.87-6.07,15.07-12.16,15.07-7.94,0-9.16-7.62-6.94-17.81,1.92-8.81,5.8-15.1,12.08-15.1C1124.83,312.12,1126.7,318.81,1124.31,330ZM1110,327.84c-1.54,7.26-1.7,13.06,2.48,13.06,3.34,0,5.27-3.51,7-11.44,1.62-7.19,2.17-13.18-2.4-13.18C1113.52,316.28,1111.43,321,1110,327.84Zm8.57,13.86,5.16,4.26-3,3.17-6.49-5.44Z"/><path class="cls-1" d="M1145.9,312.64l-4.63,21.83c-.7,3.18-.47,6.49,3.42,6.49,3.66,0,4.67-3.13,5.41-6.51l4.63-21.81h4.8l-4.67,22c-1.23,5.85-3.24,10.43-10.79,10.43-6.86,0-8.89-4.55-7.66-10.33l4.69-22.06Z"/><path class="cls-1" d="M1178.65,312.64l-6.78,31.88h-4.8l6.79-31.88Z"/><path class="cls-1" d="M1193.33,312.64h4.8l-5.87,27.68h11l-1.35,4.2h-15.41Z"/><path class="cls-1" d="M1225,312.64l-6.79,31.88h-4.8l6.79-31.88Z"/><path class="cls-1" d="M1239.65,312.64H1246c8.59,0,11.1,6.48,8.91,17-2.08,10-5.65,14.85-14,14.85h-8.12Zm-1.15,28h2c5,0,7.72-2,9.56-11.12,2-9.75.45-12.89-4.87-12.89h-1.61Z"/><path class="cls-1" d="M1270.89,335.68l-3.74,8.84h-4.86l13.9-31.88h6.48l.71,31.88h-4.69l-.07-8.84Zm7.64-4.13c-.07-6.8-.07-12.17.07-15.12h-.13c-1,3-3.24,8.59-5.89,15.12Z"/><path class="cls-1" d="M1301.65,312.64H1308c8.59,0,11.1,6.48,8.91,17-2.08,10-5.65,14.85-13.94,14.85h-8.13Zm-1.16,28h2c5,0,7.72-2,9.56-11.12,2-9.75.45-12.89-4.87-12.89h-1.61Z"/><path class="cls-1" d="M1361.84,344.52H1358c0-.72.25-1.91.42-2.87a6.9,6.9,0,0,1-6.35,3.38c-6.35,0-7.92-6.62-5.71-17.25,2.43-11.67,7.16-15.66,12.55-15.66,7.55,0,7.9,6.38,7.75,8.47h-4.76c0-1,.31-4.4-3.33-4.4-3.31,0-5.84,4-7.43,11.84-1.5,7.42-1.62,13,2.68,13,3.66,0,4.84-3.65,5.69-7.7l.44-2.12h-4.6l.92-4.19h9.27Z"/><path class="cls-1" d="M1382.64,335.68l-3.74,8.84H1374l13.9-31.88h6.48l.71,31.88h-4.69l-.07-8.84Zm7.64-4.13c-.07-6.8-.07-12.17.07-15.12h-.13c-1,3-3.25,8.59-5.89,15.12Z"/><path class="cls-1" d="M1414.38,330.33l-3,14.19h-4.79l6.78-31.88h8.12c6.72,0,9,4.31,7.84,9.6a7.81,7.81,0,0,1-5.77,6.38c2.25,1.07,3.24,3.35,2.3,8a57.92,57.92,0,0,0-1.26,7.86H1420c0-1.15.16-3.22,1.17-8.06.89-4.4.09-6.13-3.49-6.13Zm.87-4h3c3.33,0,5.56-.88,6.27-4.34.66-3.13-.53-5.4-4-5.4h-3.14Z"/><path class="cls-1" d="M1444.68,335.68l-3.74,8.84h-4.86l13.9-31.88h6.48l.71,31.88h-4.7l-.06-8.84Zm7.63-4.13c-.07-6.8-.07-12.17.07-15.12h-.12c-1,3-3.25,8.59-5.89,15.12Z"/><path class="cls-1" d="M1468.64,344.52l6.79-31.88h5.62c3.07,18.1,3.77,22.95,3.91,24.65h0c.6-4,1.73-9.55,2.84-14.76l2.12-9.89h4.4l-6.79,31.88h-5.36c-3-18.64-3.75-24.1-3.92-25.83h0c-.63,3.95-1.7,9.74-2.93,15.47l-2.21,10.36Z"/><path class="cls-1" d="M1511.91,316.84h-6.72l.92-4.2h18.21l-.92,4.2h-6.69l-5.87,27.68H1506Z"/><path class="cls-1" d="M1540.67,312.64l-6.79,31.88h-4.8l6.79-31.88Z"/><path class="cls-1" d="M1546.83,341.15l16.67-24.31h-11.6l.95-4.2h17.08l-.87,3.81-16.23,23.87h12.54l-1.51,4.2H1546.1Z"/><path class="cls-1" d="M1582.62,335.68l-3.73,8.84H1574l13.89-31.88h6.48l.72,31.88h-4.7l-.07-8.84Zm7.64-4.13c-.07-6.8-.07-12.17.07-15.12h-.13c-1,3-3.24,8.59-5.89,15.12Z"/><path class="cls-1" d="M1613.38,312.64h6.37c8.59,0,11.1,6.48,8.92,17-2.09,10-5.65,14.85-14,14.85h-8.13Zm-1.15,28h2c5,0,7.71-2,9.55-11.12,2-9.75.45-12.89-4.86-12.89h-1.62Z"/><path class="cls-1" d="M1644.61,335.68l-3.73,8.84H1636l13.89-31.88h6.48l.72,31.88h-4.7l-.07-8.84Zm7.64-4.13c-.07-6.8-.07-12.17.07-15.12h-.13c-1,3-3.24,8.59-5.89,15.12Z"/></g></g></svg>